<?xml version="1.0" encoding="UTF-8" standalone="no"?>
<svg
   xmlns:dc="http://purl.org/dc/elements/1.1/"
   xmlns:cc="http://creativecommons.org/ns#"
   xmlns:rdf="http://www.w3.org/1999/02/22-rdf-syntax-ns#"
   xmlns:svg="http://www.w3.org/2000/svg"
   xmlns="http://www.w3.org/2000/svg"
   xmlns:sodipodi="http://sodipodi.sourceforge.net/DTD/sodipodi-0.dtd"
   xmlns:inkscape="http://www.inkscape.org/namespaces/inkscape"
   height="128"
   id="Layer_1"
   version="1.1"
   viewBox="0 0 128 128"
   width="128"
   xml:space="preserve"
   inkscape:version="0.91 r13725"
   sodipodi:docname="facebook.svg"><metadata
     id="metadata9"><rdf:RDF><cc:Work
         rdf:about=""><dc:format>image/svg+xml</dc:format><dc:type
           rdf:resource="http://purl.org/dc/dcmitype/StillImage" /><dc:title /></cc:Work></rdf:RDF></metadata><defs
     id="defs7" /><sodipodi:namedview
     pagecolor="#ffffff"
     bordercolor="#666666"
     borderopacity="1"
     objecttolerance="10"
     gridtolerance="10"
     guidetolerance="10"
     inkscape:pageopacity="0"
     inkscape:pageshadow="2"
     inkscape:window-width="1280"
     inkscape:window-height="712"
     id="namedview5"
     showgrid="false"
     fit-margin-top="0"
     fit-margin-left="0"
     fit-margin-right="0"
     fit-margin-bottom="0"
     inkscape:zoom="3.984375"
     inkscape:cx="64"
     inkscape:cy="64"
     inkscape:window-x="0"
     inkscape:window-y="1"
     inkscape:window-maximized="1"
     inkscape:current-layer="Layer_1" /><rect
     style="opacity:1;fill:#ffffff;fill-opacity:1;stroke:none;stroke-width:10;stroke-linejoin:miter;stroke-miterlimit:4;stroke-dasharray:none"
     id="rect4133"
     width="83.576469"
     height="83.074509"
     x="22.086275"
     y="22.588236" /><path
     d="m 54.965333,98.816 14.3872,0 0,-34.820267 9.597867,0 1.271467,-11.997866 -10.869334,0 0.01493,-6.007467 c 0,-3.127467 0.298666,-4.8064 4.7872,-4.8064 l 5.998933,0 0,-12 -9.6,0 c -11.530667,0 -15.588267,5.821867 -15.588267,15.6096 l 0,7.204267 -7.1872,0 0,12 7.1872,0 0,34.818133 z M 64,128 C 28.654933,128 0,99.345067 0,64 0,28.6528 28.654933,0 64,0 c 35.34507,0 64,28.6528 64,64 0,35.345067 -28.65493,64 -64,64 z"
     style="clip-rule:evenodd;fill:#3a589b;fill-rule:evenodd"
     id="path3"
     inkscape:connector-curvature="0" /></svg>