<?xml version="1.0" encoding="UTF-8" standalone="no"?>
<svg
   xmlns:dc="http://purl.org/dc/elements/1.1/"
   xmlns:cc="http://creativecommons.org/ns#"
   xmlns:rdf="http://www.w3.org/1999/02/22-rdf-syntax-ns#"
   xmlns:svg="http://www.w3.org/2000/svg"
   xmlns="http://www.w3.org/2000/svg"
   xmlns:sodipodi="http://sodipodi.sourceforge.net/DTD/sodipodi-0.dtd"
   xmlns:inkscape="http://www.inkscape.org/namespaces/inkscape"
   enable-background="new 0 0 128 128"
   height="128"
   id="Layer_1"
   version="1.1"
   viewBox="0 0 128 128"
   width="128"
   xml:space="preserve"
   inkscape:version="0.91 r13725"
   sodipodi:docname="1477766268_social-instagram-new-circle.svg"><metadata
     id="metadata30"><rdf:RDF><cc:Work
         rdf:about=""><dc:format>image/svg+xml</dc:format><dc:type
           rdf:resource="http://purl.org/dc/dcmitype/StillImage" /><dc:title></dc:title></cc:Work></rdf:RDF></metadata><defs
     id="defs28" /><sodipodi:namedview
     pagecolor="#ffffff"
     bordercolor="#666666"
     borderopacity="1"
     objecttolerance="10"
     gridtolerance="10"
     guidetolerance="10"
     inkscape:pageopacity="0"
     inkscape:pageshadow="2"
     inkscape:window-width="1280"
     inkscape:window-height="712"
     id="namedview26"
     showgrid="false"
     fit-margin-top="0"
     fit-margin-left="0"
     fit-margin-right="0"
     fit-margin-bottom="0"
     inkscape:zoom="3.8171387"
     inkscape:cx="44.184743"
     inkscape:cy="74.479053"
     inkscape:window-x="0"
     inkscape:window-y="1"
     inkscape:window-maximized="1"
     inkscape:current-layer="Layer_1" /><g
     id="g3"><linearGradient
       gradientTransform="matrix(1,0,0,-1,594,633)"
       gradientUnits="userSpaceOnUse"
       id="SVGID_1_"
       x1="-566.71143"
       x2="-493.28751"
       y1="516.56927"
       y2="621.42963"><stop
         offset="0"
         style="stop-color:#FFB900"
         id="stop6" /><stop
         offset="1"
         style="stop-color:#9100EB"
         id="stop8" /></linearGradient><circle
       cx="64"
       cy="64"
       r="64"
       id="circle10"
       style="fill:url(#SVGID_1_)" /></g><g
     id="g12"><g
       id="g14"><path
         d="m 82.333,104 -36.666,0 C 33.72,104 24,94.281 24,82.333 L 24,45.667 C 24,33.719 33.72,24 45.667,24 l 36.666,0 C 94.281,24 104,33.719 104,45.667 l 0,36.667 C 104,94.281 94.281,104 82.333,104 Z M 45.667,30.667 c -8.271,0 -15,6.729 -15,15 l 0,36.667 c 0,8.271 6.729,15 15,15 l 36.666,0 c 8.271,0 15,-6.729 15,-15 l 0,-36.667 c 0,-8.271 -6.729,-15 -15,-15 l -36.666,0 z"
         id="path16"
         inkscape:connector-curvature="0"
         style="fill:#ffffff" /></g><g
       id="g18"><path
         d="M 64,84 C 52.972,84 44,75.027 44,64 44,52.971 52.972,44 64,44 c 11.028,0 20,8.971 20,20 0,11.027 -8.972,20 -20,20 z m 0,-33.333 c -7.352,0 -13.333,5.981 -13.333,13.333 0,7.353 5.981,13.333 13.333,13.333 7.352,0 13.333,-5.98 13.333,-13.333 0,-7.352 -5.98,-13.333 -13.333,-13.333 z"
         id="path20"
         inkscape:connector-curvature="0"
         style="fill:#ffffff" /></g><g
       id="g22"><circle
         cx="85.25"
         cy="42.75"
         r="4.5830002"
         id="circle24"
         style="fill:#ffffff" /></g></g></svg>