<?xml version="1.0" encoding="UTF-8" standalone="no"?>
<svg
   xmlns:dc="http://purl.org/dc/elements/1.1/"
   xmlns:cc="http://creativecommons.org/ns#"
   xmlns:rdf="http://www.w3.org/1999/02/22-rdf-syntax-ns#"
   xmlns:svg="http://www.w3.org/2000/svg"
   xmlns="http://www.w3.org/2000/svg"
   xmlns:sodipodi="http://sodipodi.sourceforge.net/DTD/sodipodi-0.dtd"
   xmlns:inkscape="http://www.inkscape.org/namespaces/inkscape"
   height="128"
   id="Layer_1"
   version="1.1"
   viewBox="0 0 128 128"
   width="128"
   xml:space="preserve"
   inkscape:version="0.91 r13725"
   sodipodi:docname="linkedin.svg"><metadata
     id="metadata9"><rdf:RDF><cc:Work
         rdf:about=""><dc:format>image/svg+xml</dc:format><dc:type
           rdf:resource="http://purl.org/dc/dcmitype/StillImage" /><dc:title /></cc:Work></rdf:RDF></metadata><defs
     id="defs7" /><sodipodi:namedview
     pagecolor="#ffffff"
     bordercolor="#666666"
     borderopacity="1"
     objecttolerance="10"
     gridtolerance="10"
     guidetolerance="10"
     inkscape:pageopacity="0"
     inkscape:pageshadow="2"
     inkscape:window-width="1280"
     inkscape:window-height="712"
     id="namedview5"
     showgrid="false"
     fit-margin-top="0"
     fit-margin-left="0"
     fit-margin-right="0"
     fit-margin-bottom="0"
     inkscape:zoom="3.984375"
     inkscape:cx="64"
     inkscape:cy="64"
     inkscape:window-x="0"
     inkscape:window-y="1"
     inkscape:window-maximized="1"
     inkscape:current-layer="Layer_1" /><rect
     style="opacity:1;fill:#ffffff;fill-opacity:1;stroke:none;stroke-width:10;stroke-linejoin:miter;stroke-miterlimit:4;stroke-dasharray:none"
     id="rect4133"
     width="80.815689"
     height="73.035294"
     x="26.352942"
     y="26.603922" /><path
     d="m 99.91893,94.158933 0,-24.9856 c 0,-13.386666 -7.146663,-19.616 -16.67413,-19.616 -7.688533,0 -11.133867,4.2304 -13.053867,7.197867 l 0,-6.173867 -14.485333,0 c 0.192,4.0896 0,43.5776 0,43.5776 l 14.485333,0 0,-24.337066 c 0,-1.2992 0.09387,-2.600534 0.477867,-3.530667 1.045333,-2.602667 3.428267,-5.297067 7.428267,-5.297067 5.243733,0 7.338666,3.995734 7.338666,9.851734 l 0,23.3152 14.483197,0 z M 40.445867,44.6336 c 5.0496,0 8.196266,-3.349333 8.196266,-7.5328 -0.09387,-4.273067 -3.146666,-7.5264 -8.100266,-7.5264 -4.9536,0 -8.194134,3.2512 -8.194134,7.5264 0,4.183467 3.144534,7.5328 8.0064,7.5328 l 0.09173,0 z M 64,128 C 28.654933,128 0,99.345067 0,64 0,28.6528 28.654933,0 64,0 c 35.34507,0 64,28.6528 64,64 0,35.345067 -28.65493,64 -64,64 z m -16.311467,-33.841067 0,-43.5776 -14.4832,0 0,43.5776 14.4832,0 z"
     style="clip-rule:evenodd;fill:#007ab9;fill-rule:evenodd"
     id="path3"
     inkscape:connector-curvature="0" /></svg>