<?xml version="1.0" encoding="UTF-8" standalone="no"?>
<svg
   xmlns:dc="http://purl.org/dc/elements/1.1/"
   xmlns:cc="http://creativecommons.org/ns#"
   xmlns:rdf="http://www.w3.org/1999/02/22-rdf-syntax-ns#"
   xmlns:svg="http://www.w3.org/2000/svg"
   xmlns="http://www.w3.org/2000/svg"
   xmlns:sodipodi="http://sodipodi.sourceforge.net/DTD/sodipodi-0.dtd"
   xmlns:inkscape="http://www.inkscape.org/namespaces/inkscape"
   height="128"
   id="Layer_1"
   version="1.1"
   viewBox="0 0 128 128"
   width="128"
   xml:space="preserve"
   inkscape:version="0.91 r13725"
   sodipodi:docname="twitter.svg"><metadata
     id="metadata9"><rdf:RDF><cc:Work
         rdf:about=""><dc:format>image/svg+xml</dc:format><dc:type
           rdf:resource="http://purl.org/dc/dcmitype/StillImage" /><dc:title></dc:title></cc:Work></rdf:RDF></metadata><defs
     id="defs7" /><sodipodi:namedview
     pagecolor="#ffffff"
     bordercolor="#666666"
     borderopacity="1"
     objecttolerance="10"
     gridtolerance="10"
     guidetolerance="10"
     inkscape:pageopacity="0"
     inkscape:pageshadow="2"
     inkscape:window-width="1280"
     inkscape:window-height="712"
     id="namedview5"
     showgrid="false"
     fit-margin-top="0"
     fit-margin-left="0"
     fit-margin-right="0"
     fit-margin-bottom="0"
     inkscape:zoom="3.984375"
     inkscape:cx="64"
     inkscape:cy="64"
     inkscape:window-x="0"
     inkscape:window-y="1"
     inkscape:window-maximized="1"
     inkscape:current-layer="Layer_1" /><rect
     style="opacity:1;fill:#ffffff;fill-opacity:1;stroke:none;stroke-width:10;stroke-linejoin:miter;stroke-miterlimit:4;stroke-dasharray:none"
     id="rect4137"
     width="75.545097"
     height="66.007843"
     x="25.6"
     y="30.117647" /><path
     d="m 72.8896,39.003733 c -5.5872,2.033067 -9.117867,7.2768 -8.7168,13.015467 l 0.134411,2.2144 -2.235733,-0.270933 C 53.937067,52.923733 46.8288,49.399467 40.7936,43.477333 l -2.9504,-2.9376 -0.759467,2.1696 c -1.608533,4.836267 -0.580266,9.943467 2.7712,13.378134 1.787734,1.898666 1.384534,2.1696 -1.698133,1.038933 -1.073067,-0.360533 -2.011733,-0.631467 -2.101333,-0.497067 -0.311467,0.317867 0.759466,4.4288 1.608533,6.056534 1.162667,2.261333 3.530667,4.4736 6.1248,5.7856 l 2.190933,1.038933 -2.592,0.04479 c -2.5024,0 -2.592,0.04481 -2.3232,0.996267 0.893867,2.9376 4.424534,6.056533 8.3584,7.413333 l 2.7712,0.9472 -2.4128,1.4464 c -3.575466,2.082133 -7.778133,3.255468 -11.9808,3.342933 -2.013866,0.04481 -3.6672,0.226135 -3.6672,0.362667 0,0.450133 5.454934,2.980268 8.6272,3.976533 9.521067,2.9376 20.832,1.6704 29.3248,-3.345065 6.0352,-3.5712 12.068267,-10.666668 14.8864,-17.538135 1.521067,-3.658666 3.04,-10.3488 3.04,-13.5552 0,-2.08 0.134389,-2.350933 2.6368,-4.836265 1.476267,-1.4464 2.8608,-3.0272 3.1296,-3.479468 0.447997,-0.859732 0.401067,-0.859732 -1.877333,-0.09174 -3.799467,1.3568 -4.337067,1.175466 -2.4576,-0.8576 1.384533,-1.4464 3.04,-4.068267 3.04,-4.836267 0,-0.134389 -0.669867,0.0896 -1.431467,0.497067 -0.804266,0.452266 -2.592,1.130666 -3.933866,1.536 l -2.4128,0.770133 -2.190934,-1.493333 c -1.207466,-0.8128 -2.903466,-1.717334 -3.799466,-1.988267 -2.280534,-0.631467 -5.768534,-0.541867 -7.825067,0.181337 z M 64,128 C 28.654933,128 0,99.345067 0,64 0,28.6528 28.654933,0 64,0 c 35.34507,0 64,28.6528 64,64 0,35.345067 -28.65493,64 -64,64 z"
     style="clip-rule:evenodd;fill:#598dca;fill-rule:evenodd"
     id="path3"
     inkscape:connector-curvature="0" /></svg>